<svg xmlns="http://www.w3.org/2000/svg" viewBox="0 9.470000267028809 110.79000091552734 36.37999725341797" data-asc="0.9052734375" width="110.79000091552734" height="36.37999725341797"><defs/><g fill="#000000"><g transform="translate(0, 0)"><path d="M0 45.26L0 9.47L4.86 9.47L23.66 37.57L23.66 9.47L28.20 9.47L28.20 45.26L23.34 45.26L4.54 17.14L4.54 45.26L0 45.26ZM33.96 32.30Q33.96 25.10 37.96 21.63Q41.31 18.75 46.12 18.75Q51.46 18.75 54.86 22.25Q58.25 25.76 58.25 31.93Q58.25 36.94 56.75 39.81Q55.25 42.68 52.38 44.26Q49.51 45.85 46.12 45.85Q40.67 45.85 37.32 42.36Q33.96 38.87 33.96 32.30M38.48 32.30Q38.48 37.28 40.65 39.76Q42.82 42.24 46.12 42.24Q49.39 42.24 51.56 39.75Q53.74 37.26 53.74 32.15Q53.74 27.34 51.55 24.87Q49.37 22.39 46.12 22.39Q42.82 22.39 40.65 24.85Q38.48 27.32 38.48 32.30ZM70.61 45.26L60.74 19.34L65.38 19.34L70.95 34.86Q71.85 37.38 72.61 40.09Q73.19 38.04 74.24 35.16L80.00 19.34L84.52 19.34L74.71 45.26L70.61 45.26ZM105.32 42.07Q102.88 44.14 100.62 45.00Q98.36 45.85 95.78 45.85Q91.50 45.85 89.21 43.76Q86.91 41.67 86.91 38.43Q86.91 36.52 87.78 34.95Q88.65 33.37 90.05 32.42Q91.46 31.47 93.21 30.98Q94.51 30.64 97.12 30.32Q102.44 29.69 104.96 28.81Q104.98 27.91 104.98 27.66Q104.98 24.98 103.74 23.88Q102.05 22.39 98.73 22.39Q95.63 22.39 94.15 23.47Q92.68 24.56 91.97 27.32L87.67 26.73Q88.26 23.97 89.60 22.28Q90.94 20.58 93.48 19.67Q96.02 18.75 99.37 18.75Q102.69 18.75 104.76 19.53Q106.84 20.31 107.81 21.50Q108.79 22.68 109.18 24.49Q109.40 25.61 109.40 28.54L109.40 34.40Q109.40 40.53 109.68 42.15Q109.96 43.77 110.79 45.26L106.20 45.26Q105.52 43.90 105.32 42.07M104.96 32.25Q102.56 33.23 97.78 33.91Q95.07 34.30 93.95 34.79Q92.82 35.28 92.21 36.22Q91.60 37.16 91.60 38.31Q91.60 40.06 92.93 41.24Q94.26 42.41 96.83 42.41Q99.37 42.41 101.34 41.30Q103.32 40.19 104.25 38.26Q104.96 36.77 104.96 33.86L104.96 32.25Z"/></g></g></svg>